<svg width="49" height="33" viewBox="0 0 49 33" fill="none" xmlns="http://www.w3.org/2000/svg">
<path d="M48.704 15.0913C44.0907 6.09013 34.9576 0 24.5 0C14.0424 0 4.90677 6.09439 0.295996 15.0922C0.101392 15.4771 0 15.9024 0 16.3338C0 16.7651 0.101392 17.1904 0.295996 17.5754C4.90932 26.5766 14.0424 32.6667 24.5 32.6667C34.9576 32.6667 44.0932 26.5723 48.704 17.5745C48.8986 17.1896 49 16.7643 49 16.3329C49 15.9016 48.8986 15.4763 48.704 15.0913ZM24.5 28.5834C22.0772 28.5834 19.7088 27.8649 17.6943 26.5189C15.6797 25.1728 14.1096 23.2596 13.1825 21.0212C12.2553 18.7828 12.0127 16.3198 12.4854 13.9435C12.958 11.5672 14.1247 9.38449 15.8379 7.67129C17.5511 5.95809 19.7339 4.79139 22.1101 4.31872C24.4864 3.84605 26.9495 4.08864 29.1879 5.01582C31.4263 5.94299 33.3395 7.51311 34.6855 9.52762C36.0316 11.5421 36.75 13.9105 36.75 16.3334C36.7508 17.9423 36.4345 19.5356 35.8191 21.0222C35.2038 22.5088 34.3015 23.8595 33.1638 24.9972C32.0261 26.1349 30.6754 27.0372 29.1888 27.6525C27.7022 28.2678 26.1089 28.5842 24.5 28.5834ZM24.5 8.16668C23.7711 8.17687 23.0468 8.28532 22.3469 8.4891C22.9238 9.27316 23.2007 10.238 23.1273 11.2087C23.0539 12.1794 22.635 13.0917 21.9466 13.78C21.2583 14.4683 20.3461 14.8872 19.3754 14.9606C18.4047 15.0341 17.4398 14.7572 16.6557 14.1803C16.2093 15.8251 16.2899 17.5686 16.8862 19.1653C17.4825 20.762 18.5645 22.1315 19.9799 23.081C21.3953 24.0306 23.0729 24.5123 24.7764 24.4585C26.48 24.4047 28.1238 23.818 29.4765 22.7811C30.8291 21.7441 31.8225 20.309 32.3169 18.6779C32.8112 17.0467 32.7816 15.3016 32.2322 13.6882C31.6828 12.0748 30.6413 10.6742 29.2542 9.68374C27.8672 8.69325 26.2044 8.16267 24.5 8.16668Z" fill="#F9F93B"/>
</svg>
