<svg width="49" height="33" viewBox="0 0 49 33" fill="none" xmlns="http://www.w3.org/2000/svg">
<path d="M47.8257 27.2143C45.9964 27.0101 44.2437 26.3209 42.8994 25.2658C41.6997 24.3214 39.9895 24.3044 38.7983 25.2658C35.5736 27.8524 29.6773 27.8524 26.4016 25.1382C25.2529 24.1853 23.5938 24.3639 22.4281 25.2914C19.195 27.8524 13.3327 27.8439 10.0739 25.1467C8.92531 24.1938 7.24065 24.3895 6.06649 25.3169C4.74769 26.3549 3.00347 27.0271 1.15714 27.2228C0.484979 27.2908 0 27.8864 0 28.5586V31.2983C0 32.0726 0.646639 32.7277 1.4209 32.6596C3.87132 32.4469 6.19412 31.6897 8.17657 30.456C12.9838 33.3999 19.8331 33.3573 24.5127 30.456C29.32 33.3999 36.1692 33.3573 40.8488 30.456C42.8313 31.6642 45.1796 32.4384 47.579 32.6511C48.3532 32.7192 48.9999 32.064 48.9999 31.2898V28.6011C49.0084 27.9205 48.5149 27.2908 47.8257 27.2143ZM47.8257 14.9622C45.9964 14.758 44.2437 14.0688 42.8994 13.0137C41.6997 12.0693 39.9895 12.0523 38.7983 13.0137C35.5736 15.6003 29.6773 15.6003 26.4016 12.8861C25.2529 11.9332 23.5938 12.1118 22.4281 13.0393C19.195 15.6003 13.3327 15.5918 10.0739 12.8946C8.92531 11.9417 7.24065 12.1374 6.06649 13.0648C4.74769 14.1028 3.00347 14.775 1.15714 14.9707C0.484979 15.0387 0 15.6343 0 16.3065V19.0462C0 19.8205 0.646639 20.4756 1.4209 20.4075C3.87132 20.1948 6.19412 19.4376 8.17657 18.2039C12.9838 21.1478 19.8331 21.1052 24.5127 18.2039C29.32 21.1478 36.1692 21.1052 40.8488 18.2039C42.8313 19.4121 45.1796 20.1863 47.579 20.399C48.3532 20.4671 48.9999 19.812 48.9999 19.0377V16.349C49.0084 15.6684 48.5149 15.0387 47.8257 14.9622ZM47.8257 2.71007C45.9964 2.49736 44.2437 1.81668 42.8994 0.761641C41.6997 -0.182791 39.9895 -0.199808 38.7983 0.761641C35.5736 3.3482 29.6773 3.3482 26.4016 0.634015C25.2529 -0.318926 23.5938 -0.140249 22.4281 0.787167C19.195 3.3482 13.3327 3.33969 10.0739 0.642524C8.92531 -0.310417 7.24065 -0.114724 6.06649 0.812692C4.74769 1.85072 3.00347 2.52288 1.15714 2.71857C0.484979 2.78664 0 3.38223 0 4.05439V6.7941C0 7.56836 0.646639 8.22351 1.4209 8.15544C3.87132 7.94273 6.19412 7.18548 8.17657 5.95177C12.9838 8.89567 19.8331 8.85313 24.5127 5.95177C29.32 8.89567 36.1692 8.85313 40.8488 5.95177C42.8313 7.15996 45.1796 7.93422 47.579 8.14693C48.3532 8.215 48.9999 7.55985 48.9999 6.78559V4.09693C49.0084 3.41626 48.5149 2.78664 47.8257 2.71007Z" fill="#F9F93B"/>
</svg>
