<svg width="49" height="43" viewBox="0 0 49 43" fill="none" xmlns="http://www.w3.org/2000/svg">
<path d="M14.996 21.4988H1.53118C0.689033 21.4988 0 22.1899 0 23.0347V26.1065C0 26.9512 0.689033 27.6423 1.53118 27.6423H15.1396C16.6612 27.6423 18.0871 28.6887 18.3359 30.1958C18.6517 32.1156 17.178 33.7859 15.3118 33.7859C13.9625 33.7859 12.8141 32.9028 12.4026 31.6837C12.2016 31.0789 11.5796 30.7141 10.948 30.7141H7.80904C6.87119 30.7141 6.11516 31.5589 6.28742 32.4804C7.11043 36.7137 10.8427 39.9295 15.3023 39.9295C20.7667 39.9295 25.1306 35.1202 24.4128 29.5046C23.829 24.8585 19.6566 21.4988 14.996 21.4988ZM1.53118 18.427H33.686C39.3993 18.427 43.9067 13.1666 42.6626 7.22462C41.9353 3.74967 39.1313 0.937076 35.667 0.207529C30.3653 -0.905991 25.609 2.59776 24.6712 7.455C24.4894 8.37654 25.255 9.21168 26.1832 9.21168H29.3222C29.9634 9.21168 30.5758 8.8469 30.7768 8.24215C31.1883 7.02304 32.3367 6.1399 33.686 6.1399C35.5426 6.1399 37.0259 7.81018 36.7101 9.73004C36.4613 11.2371 35.045 12.2835 33.5138 12.2835H1.53118C0.689033 12.2835 0 12.9746 0 13.8193V16.8911C0 17.7359 0.689033 18.427 1.53118 18.427ZM38.2796 21.4988H23.3218C25.1688 23.0923 26.499 25.2233 27.1307 27.6423H38.2796C40.8156 27.6423 42.8731 29.7062 42.8731 32.25C42.8731 34.7938 40.8156 36.8577 38.2796 36.8577C36.5666 36.8577 35.0928 35.9073 34.2985 34.5154C34.021 34.0355 33.4659 33.7859 32.9109 33.7859H29.6763C28.6331 33.7859 27.858 34.8226 28.2121 35.8114C29.9155 40.6686 34.9588 43.9516 40.5955 42.7516C44.5383 41.9165 47.7825 38.7583 48.7012 34.813C50.3377 27.7863 45.0264 21.4988 38.2796 21.4988Z" fill="#F9F93B"/>
</svg>
